<?xml version="1.0" encoding="utf-8"?>
<!-- Generator: Adobe Illustrator 23.0.0, SVG Export Plug-In . SVG Version: 6.00 Build 0)  -->
<svg version="1.1" id="Layer_1" xmlns="http://www.w3.org/2000/svg" xmlns:xlink="http://www.w3.org/1999/xlink" x="0px" y="0px"
	 viewBox="0 0 256 256" style="enable-background:new 0 0 256 256;" xml:space="preserve">
<style type="text/css">
	.st0{fill:#1B75BC;}
	.st1{fill:url(#SVGID_1_);}
	.st2{fill:url(#SVGID_2_);}
	.st3{fill:#27AAE1;}
	.st4{fill:url(#SVGID_3_);}
	.st5{clip-path:url(#SVGID_4_);fill:url(#SVGID_5_);}
	.st6{clip-path:url(#SVGID_6_);fill:#1B75BC;}
	.st7{fill:none;stroke:#00AEEF;stroke-width:1.4694;stroke-miterlimit:10;}
</style>
<g>
	<path class="st0" d="M10,256H246c5.5,0,10-4.5,10-10V10c0-5.5-4.5-10-10-10H10C4.5,0,0,4.5,0,10V246C0,251.5,4.5,256,10,256z"/>
	<linearGradient id="SVGID_1_" gradientUnits="userSpaceOnUse" x1="155.9558" y1="98.8494" x2="7.4058" y2="253.4515">
		<stop  offset="0" style="stop-color:#BCBEC0"/>
		<stop  offset="0.2627" style="stop-color:#F1F2F2"/>
		<stop  offset="0.9983" style="stop-color:#D1D3D4"/>
	</linearGradient>
	<path class="st1" d="M256,223.3c0-15.5-6.1-29.6-15.9-40c-0.2-0.2-0.4-0.4-0.6-0.6c-0.4-0.4-0.8-0.8-1.2-1.2L221.8,165L91,34.2
		L74.5,17.7C63.9,6.8,49.1,0,32.7,0L10,0C5.2,0,0,3.8,0,10V246c0,4.9,4.3,10,10,10H246c3.9,0,10-3.3,10-10L256,223.3z"/>
	<g>
		<linearGradient id="SVGID_2_" gradientUnits="userSpaceOnUse" x1="155.2313" y1="100.6017" x2="197.1194" y2="58.0789">
			<stop  offset="0" style="stop-color:#274EA1;stop-opacity:0.8"/>
			<stop  offset="1" style="stop-color:#1B75BC;stop-opacity:0"/>
		</linearGradient>
		<path class="st2" d="M240.7,0h-90.9h-59H32.4c16.4,0,31.3,6.8,41.9,17.7l16.5,16.5l130.9,130.9l16.5,16.5c0.4,0.4,0.8,0.8,1.2,1.2
			c0.2,0.2,0.4,0.4,0.6,0.6c9.9,10.5,15.9,24.6,15.9,40.1v-58.4v-59V15.3C256,6.8,249.2,0,240.7,0z"/>
	</g>
	<path class="st3" d="M221.7,165.2L90.8,34.3L74.3,17.7c10.2,10.5,16.5,24.9,16.5,40.7c0,0.2,0,0.3,0,0.5l0,0v95.4
		c0,6,4.8,10.8,10.8,10.8H197h0.5c15.8,0,30.2,6.3,40.7,16.5L221.7,165.2z"/>
	<linearGradient id="SVGID_3_" gradientUnits="userSpaceOnUse" x1="157.2345" y1="98.8232" x2="88.2891" y2="163.4862">
		<stop  offset="0" style="stop-color:#1B75BC"/>
		<stop  offset="0.5084" style="stop-color:#1B75BC;stop-opacity:0"/>
		<stop  offset="0.574" style="stop-color:#2E7CC0;stop-opacity:0.1335"/>
		<stop  offset="0.6909" style="stop-color:#508ECB;stop-opacity:0.3712"/>
		<stop  offset="0.8453" style="stop-color:#7DB1DF;stop-opacity:0.6854"/>
		<stop  offset="1" style="stop-color:#B3E3FA"/>
	</linearGradient>
	<path class="st4" d="M221.7,165.2L90.8,34.3L74.3,17.7c10.2,10.5,16.5,24.9,16.5,40.7c0,0.2,0,0.3,0,0.5l0,0v95.4
		c0,6,4.8,10.8,10.8,10.8H197h0.5c15.8,0,30.2,6.3,40.7,16.5L221.7,165.2z"/>
	<g>
		<defs>
			<polygon id="SVGID_12_" points="221.7,165.2 90.8,34.3 58.6,0 229.9,0 256,0 256,165.2 			"/>
		</defs>
		<clipPath id="SVGID_4_">
			<use xlink:href="#SVGID_12_"  style="overflow:visible;"/>
		</clipPath>
		<linearGradient id="SVGID_5_" gradientUnits="userSpaceOnUse" x1="218.3054" y1="63.9797" x2="167.1123" y2="116.9082">
			<stop  offset="0" style="stop-color:#FFFFFF"/>
			<stop  offset="1" style="stop-color:#D9D9D9"/>
		</linearGradient>
		<path class="st5" d="M189.1,15.1h-22.4l-48.8,130.2h22.6l12.8-34.1h49.7l12.9,34.1h22.6L189.1,15.1z M161.2,90.1l16.7-44.7
			l17,44.7H161.2z"/>
	</g>
	<g>
		<defs>
			<path id="SVGID_15_" d="M238.8,181.8c-10.6-10.3-25-16.6-40.9-16.6h-0.5h-95.8c-6,0-10.8-4.8-10.8-10.8V58.6l0,0
				c0-0.2,0-0.3,0-0.5c0-15.9-6.3-30.3-16.6-40.9H0V256h238.8V181.8z"/>
		</defs>
		<clipPath id="SVGID_6_">
			<use xlink:href="#SVGID_15_"  style="overflow:visible;"/>
		</clipPath>
		<path class="st6" d="M108,147.4c-12.9-12.7-24.8-22.8-35.8-30.1c-9.8-6.6-17.2-9.8-22.4-11.4l0.1-28.8L32.6,77l-0.2,73l-17-0.1
			l-0.1,20.4l17,0.1l-0.2,73l17.3,0.1l0.3-116.3c3.4,1.5,8.1,3.9,13.9,7.8c7.6,5.1,17.9,13.2,31,25.8c-11,10.3-20.4,17-26.8,21.1
			l-0.1,22.8c6.1-3.2,21.3-12.1,40.3-30.4c12.5,13.3,27.1,30.2,43.9,51.8l12.8-13.8c-15.4-19.8-29.9-37.1-43.5-51.6
			c8.3-9.2,17-20.1,25.8-32.9l-17.1-7.6C122.4,130.8,115,139.7,108,147.4z"/>
	</g>
	<path class="st7" d="M32.4,0c16.4,0,31.3,6.8,41.9,17.7c10.2,10.5,16.5,24.9,16.5,40.7c0,0.2,0,0.3,0,0.5l0,0v95.4
		c0,6,4.8,10.8,10.8,10.8H197h0.5c15.8,0,30.2,6.3,40.7,16.5c0.4,0.4,0.8,0.8,1.2,1.2c0.2,0.2,0.4,0.4,0.6,0.6
		c9.9,10.5,15.9,24.6,15.9,40.1"/>
	<g>
		<path class="st3" d="M246,2.5c4.2,0,7.5,3.4,7.5,7.5V246c0,4.2-3.4,7.5-7.5,7.5H10c-4.2,0-7.5-3.4-7.5-7.5V10
			c0-4.2,3.4-7.5,7.5-7.5H246 M246,0H10C4.5,0,0,4.5,0,10V246c0,5.5,4.5,10,10,10H246c5.5,0,10-4.5,10-10V10C256,4.5,251.5,0,246,0
			L246,0z"/>
	</g>
</g>
</svg>
